<svg width="62" height="64" viewBox="0 0 62 64" fill="none" xmlns="http://www.w3.org/2000/svg">
<path d="M38.2959 55.9276V57.7975C38.2959 59.2856 37.2029 60.5235 35.7807 60.7342L35.3198 62.4329C35.0696 63.3547 34.24 64 33.2787 64H28.7091C27.7478 64 26.9182 63.3547 26.668 62.4329L26.2202 60.7342C24.7848 60.5103 23.6918 59.2856 23.6918 57.7844V55.9144C23.6918 54.9136 24.4951 54.1103 25.4959 54.1103H36.4918C37.4927 54.1235 38.2959 54.9268 38.2959 55.9276ZM46.7634 30.7226C46.7634 34.9761 45.0778 38.8346 42.3387 41.6658C40.2581 43.8255 38.9149 46.5778 38.4671 49.5144C38.2696 50.7786 37.1766 51.7136 35.8861 51.7136H26.1017C24.8243 51.7136 23.7182 50.7918 23.5338 49.5276C23.0729 46.5909 21.7165 43.7992 19.6359 41.6527C16.9494 38.8609 15.277 35.0683 15.2375 30.8938C15.1453 22.1235 22.1248 15.0255 30.8951 14.9597C39.6523 14.8938 46.7634 21.9786 46.7634 30.7226ZM32.7783 21.1753C32.7783 20.2008 31.9881 19.3975 31.0005 19.3975C24.7322 19.3975 19.6227 24.4938 19.6227 30.7753C19.6227 31.7498 20.4128 32.5531 21.4005 32.5531C22.375 32.5531 23.1783 31.763 23.1783 30.7753C23.1783 26.456 26.6943 22.9531 31.0005 22.9531C31.9881 22.9531 32.7783 22.163 32.7783 21.1753ZM31.0005 9.78436C31.975 9.78436 32.7783 8.99424 32.7783 8.00658V1.77778C32.7783 0.803292 31.9881 0 31.0005 0C30.0128 0 29.2227 0.790123 29.2227 1.77778V8.00658C29.2227 8.99424 30.026 9.78436 31.0005 9.78436ZM10.0754 30.7095C10.0754 29.735 9.28525 28.9317 8.2976 28.9317H2.06879C1.09431 28.9317 0.291016 29.7218 0.291016 30.7095C0.291016 31.6839 1.08114 32.4872 2.06879 32.4872H8.2976C9.28525 32.4872 10.0754 31.6971 10.0754 30.7095ZM59.9322 28.9317H53.7034C52.7289 28.9317 51.9256 29.7218 51.9256 30.7095C51.9256 31.6839 52.7157 32.4872 53.7034 32.4872H59.9322C60.9066 32.4872 61.7099 31.6971 61.7099 30.7095C61.7099 29.735 60.9198 28.9317 59.9322 28.9317ZM13.6968 45.5111L9.28525 49.9226C8.58731 50.6206 8.58731 51.7399 9.28525 52.4379C9.62764 52.7802 10.0885 52.9514 10.5363 52.9514C10.984 52.9514 11.4449 52.7802 11.7873 52.4379L16.1988 48.0263C16.8968 47.3284 16.8968 46.2091 16.1988 45.5111C15.5141 44.8132 14.3815 44.8132 13.6968 45.5111ZM47.0532 16.4346C47.5009 16.4346 47.9618 16.2634 48.3042 15.921L52.7157 11.5095C53.4136 10.8115 53.4136 9.69218 52.7157 8.99424C52.0178 8.2963 50.8984 8.2963 50.2005 8.99424L45.789 13.4058C45.091 14.1037 45.091 15.223 45.789 15.921C46.1445 16.2634 46.5922 16.4346 47.0532 16.4346ZM13.6968 15.9078C14.0392 16.2502 14.5001 16.4214 14.9478 16.4214C15.3955 16.4214 15.8564 16.2502 16.1988 15.9078C16.8968 15.2099 16.8968 14.0905 16.1988 13.3926L11.7873 8.98107C11.0894 8.28313 9.97003 8.28313 9.27208 8.98107C8.57414 9.67901 8.57414 10.7984 9.27208 11.4963L13.6968 15.9078ZM48.3042 45.5111C47.6062 44.8132 46.4869 44.8132 45.789 45.5111C45.091 46.2091 45.091 47.3284 45.789 48.0263L50.2005 52.4379C50.5429 52.7802 51.0038 52.9514 51.4515 52.9514C51.8992 52.9514 52.3601 52.7802 52.7025 52.4379C53.4005 51.7399 53.4005 50.6206 52.7025 49.9226L48.3042 45.5111Z" fill="#34B2FF"/>
</svg>
