<svg width="70" height="50" viewBox="0 0 70 50" fill="none" xmlns="http://www.w3.org/2000/svg">
<path d="M62.4504 43.083L7.55184 43.0846C5.98791 43.0846 4.71998 41.8168 4.71984 40.2529L4.71875 3.21254C4.71875 1.64848 5.98654 0.380547 7.55061 0.380547L62.4491 0.378906C64.013 0.378906 65.2809 1.6467 65.2811 3.21062L65.2822 40.251C65.2822 41.8151 64.0144 43.083 62.4504 43.083Z" fill="#34B2FF"/>
<path d="M65.2825 40.2363C65.2825 41.8078 64.0219 43.0833 62.4655 43.0833H58.2402C59.7965 43.0833 61.0572 41.8078 61.0572 40.2363L61.0558 3.22594C61.0558 1.65572 59.7995 0.383145 58.246 0.378906H62.4643C64.0206 0.378906 65.2813 1.65299 65.2813 3.22594L65.2825 40.2363Z" fill="#34B2FF"/>
<path d="M61.0559 38.2599C61.0559 38.5652 60.811 38.8127 60.509 38.8127H56.8306L9.4916 38.814C9.18959 38.814 8.94473 38.5666 8.94473 38.2613L8.94336 5.20353C8.94336 4.89824 9.18822 4.65078 9.49023 4.65078L56.8292 4.64941H60.5078C60.8098 4.64941 61.0547 4.89687 61.0547 5.20217L61.0559 38.2599Z" fill="#F3F3F3"/>
<path d="M60.5099 38.8127H56.8314L56.8301 4.64941H60.5086C60.8106 4.64941 61.0555 4.89687 61.0555 5.20217L61.0569 38.2599C61.0569 38.5652 60.812 38.8127 60.5099 38.8127Z" fill="#E4E4E4"/>
<path d="M66.3363 49.7196H3.66365C1.64021 49.7196 0 48.0793 0 46.0559V43.2346C0 42.9233 0.252383 42.6709 0.563691 42.6709H69.4364C69.7477 42.6709 70.0001 42.9233 70.0001 43.2346V46.0559C70 48.0793 68.3598 49.7196 66.3363 49.7196Z" fill="#34B2FF"/>
<path d="M69.4372 42.6709H65.2119C65.523 42.6709 65.7753 42.9234 65.7753 43.2347V46.0541C65.7753 48.0784 64.1358 49.7194 62.1133 49.7194H66.3386C68.3611 49.7196 70.0006 48.0785 70.0006 46.0543V43.2349C70.0006 42.9234 69.7483 42.6709 69.4372 42.6709Z" fill="#34B2FF"/>
<path d="M39.7882 46.0543H30.2124C29.2785 46.0543 28.5215 45.2973 28.5215 44.3633V42.6709H41.4791V44.3633C41.4791 45.2973 40.7221 46.0543 39.7882 46.0543Z" fill="#074ECE"/>
<path d="M51.5653 33.1725C51.5302 33.4309 51.4464 33.8009 51.3716 34.1017C51.3017 34.3826 51.0584 34.579 50.7792 34.579H49.9243C49.6451 34.579 49.4018 34.3826 49.3319 34.1017C49.2571 33.8009 49.1733 33.4309 49.1382 33.1725C49.1121 32.98 49.0008 32.8114 48.8387 32.7144L48.0487 32.2416C47.8868 32.1447 47.6908 32.1289 47.5175 32.2016C47.2837 32.2995 46.9311 32.4098 46.6418 32.4932C46.3731 32.5706 46.088 32.4502 45.9484 32.1995L45.5215 31.433C45.3817 31.182 45.4238 30.8648 45.6233 30.6619C45.8373 30.4441 46.105 30.1835 46.3035 30.0228C46.4511 29.9034 46.536 29.7191 46.536 29.5249V28.5805C46.536 28.3862 46.4511 28.202 46.3035 28.0825C46.105 27.9218 45.8374 27.6612 45.6233 27.4435C45.4238 27.2406 45.3817 26.9234 45.5215 26.6723L45.9484 25.9059C46.088 25.6551 46.373 25.5347 46.6418 25.6122C46.9311 25.6956 47.2837 25.8058 47.5175 25.9038C47.6908 25.9765 47.8868 25.9607 48.0487 25.8638L48.8387 25.391C49.0008 25.294 49.1121 25.1254 49.1382 24.9329C49.1733 24.6745 49.2571 24.3044 49.3319 24.0037C49.4018 23.7228 49.6451 23.5264 49.9243 23.5264H50.7792C51.0584 23.5264 51.3017 23.7228 51.3716 24.0037C51.4464 24.3044 51.5302 24.6745 51.5653 24.9329C51.5914 25.1254 51.7027 25.294 51.8648 25.391L52.6548 25.8638C52.8167 25.9607 53.0126 25.9764 53.186 25.9038C53.4198 25.8058 53.7723 25.6956 54.0617 25.6122C54.3304 25.5347 54.6154 25.6551 54.7551 25.9059L55.182 26.6723C55.3218 26.9234 55.2796 27.2406 55.0802 27.4435C54.8661 27.6612 54.5984 27.9218 54.3999 28.0825C54.2524 28.202 54.1674 28.3862 54.1674 28.5805V29.5249C54.1674 29.7191 54.2524 29.9034 54.3999 30.0228C54.5984 30.1835 54.8661 30.4442 55.0802 30.6619C55.2796 30.8648 55.3218 31.1819 55.182 31.433L54.7551 32.1995C54.6154 32.4502 54.3304 32.5706 54.0617 32.4932C53.7723 32.4098 53.4198 32.2996 53.186 32.2016C53.0126 32.1289 52.8167 32.1447 52.6548 32.2416L51.8648 32.7144C51.7026 32.8114 51.5914 32.9799 51.5653 33.1725ZM52.4567 29.0527C52.4567 27.8476 51.5143 26.8707 50.3517 26.8707C49.1891 26.8707 48.2467 27.8476 48.2467 29.0527C48.2467 30.2578 49.1891 31.2347 50.3517 31.2347C51.5143 31.2347 52.4567 30.2578 52.4567 29.0527Z" fill="#34B2FF"/>
<path d="M33.4401 25.3865C33.3616 25.9431 33.1743 26.7403 33.007 27.3881C32.8507 27.9932 32.3065 28.4163 31.6821 28.4163H29.7701C29.1457 28.4163 28.6016 27.9932 28.4453 27.3881C28.278 26.7403 28.0907 25.9431 28.0122 25.3865C27.9538 24.9718 27.7049 24.6087 27.3423 24.3997L25.5756 23.3812C25.2134 23.1725 24.7752 23.1386 24.3877 23.295C23.8647 23.5061 23.0762 23.7435 22.4292 23.9232C21.8283 24.09 21.1908 23.8306 20.8784 23.2905L19.9236 21.6394C19.611 21.0987 19.7053 20.4154 20.1514 19.9783C20.6301 19.5092 21.2288 18.9479 21.6727 18.6017C22.0026 18.3444 22.1926 17.9475 22.1926 17.529V15.4947C22.1926 15.0763 22.0026 14.6794 21.6727 14.4221C21.2288 14.0759 20.6302 13.5144 20.1514 13.0454C19.7053 12.6083 19.611 11.9252 19.9236 11.3843L20.8784 9.73328C21.1908 9.19311 21.8281 8.93375 22.4292 9.10055C23.0762 9.2802 23.8647 9.51754 24.3877 9.72877C24.7752 9.88531 25.2134 9.85127 25.5756 9.6425L27.3423 8.62408C27.7049 8.41504 27.9538 8.05191 28.0122 7.63725C28.0907 7.08066 28.278 6.28346 28.4453 5.63568C28.6016 5.03057 29.1457 4.60742 29.7701 4.60742H31.6821C32.3065 4.60742 32.8507 5.03057 33.007 5.63568C33.1743 6.28346 33.3616 7.08066 33.4401 7.63725C33.4985 8.05191 33.7474 8.41504 34.11 8.62408L35.8767 9.6425C36.2388 9.85127 36.677 9.88518 37.0646 9.72877C37.5876 9.51768 38.376 9.2802 39.0231 9.10055C39.624 8.93375 40.2615 9.19311 40.5739 9.73328L41.5286 11.3843C41.8413 11.925 41.747 12.6083 41.3009 13.0454C40.8222 13.5145 40.2235 14.0759 39.7796 14.4221C39.4497 14.6794 39.2596 15.0763 39.2596 15.4947V17.529C39.2596 17.9475 39.4497 18.3444 39.7796 18.6017C40.2235 18.9479 40.8221 19.5094 41.3009 19.9783C41.747 20.4154 41.8413 21.0986 41.5286 21.6394L40.5739 23.2905C40.2615 23.8306 39.6241 24.09 39.0231 23.9232C38.376 23.7435 37.5876 23.5061 37.0646 23.295C36.677 23.1384 36.2388 23.1725 35.8767 23.3812L34.11 24.3997C33.7473 24.6087 33.4985 24.9718 33.4401 25.3865ZM35.4337 16.5119C35.4337 13.9161 33.3261 11.8117 30.7261 11.8117C28.1261 11.8117 26.0184 13.9161 26.0184 16.5119C26.0184 19.1078 28.1261 21.2122 30.7261 21.2122C33.3261 21.2122 35.4337 19.1078 35.4337 16.5119Z" fill="#34B2FF"/>
</svg>
