<svg width="57" height="57" viewBox="0 0 57 57" fill="none" xmlns="http://www.w3.org/2000/svg">
<path d="M22.834 34.166H34.1664V22.8337H22.834V34.166Z" fill="#074ECE"/>
<path d="M51.4305 26.8274C48.9411 26.8274 46.8282 25.1855 46.1171 22.9278H42.5159V34.0722H46.1171C46.8282 31.8146 48.9411 30.1726 51.4305 30.1726C54.5016 30.1726 57 32.671 57 35.7421C57 38.8132 54.5016 41.3116 51.4305 41.3116C48.9411 41.3116 46.8282 39.6697 46.1171 37.412H42.5159V42.5158H37.412V46.117C39.6698 46.8281 41.3116 48.941 41.3116 51.4305C41.3116 54.5016 38.8132 57 35.7421 57C32.6711 57 30.1727 54.5016 30.1727 51.4305C30.1727 48.941 31.8146 46.8282 34.0722 46.117V42.5158H22.9278V46.117C25.1854 46.8282 26.8273 48.941 26.8273 51.4305C26.8274 54.5016 24.3289 57 21.2579 57C18.1868 57 15.6884 54.5016 15.6884 51.4305C15.6884 48.941 17.3303 46.8281 19.588 46.117V42.5158H14.4841V37.412H10.8829C10.1718 39.6698 8.05893 41.3116 5.56952 41.3116C2.49843 41.3116 0 38.8132 0 35.7421C0 32.6711 2.49843 30.1726 5.56952 30.1726C8.05893 30.1726 10.1718 31.8145 10.8829 34.0722H14.4841V22.9278H10.8829C10.1718 25.1854 8.05893 26.8274 5.56952 26.8274C2.49843 26.8274 0 24.329 0 21.2579C0 18.1868 2.49843 15.6884 5.56952 15.6884C8.05893 15.6884 10.1718 17.3303 10.8829 19.588H14.4841V14.4842H19.588V10.883C17.3302 10.1719 15.6884 8.05904 15.6884 5.56953C15.6884 2.49854 18.1868 0 21.2579 0C24.3289 0 26.8273 2.49843 26.8273 5.56953C26.8273 8.05904 25.1854 10.1718 22.9278 10.883V14.4842H34.0722V10.883C31.8146 10.1718 30.1727 8.05904 30.1727 5.56953C30.1727 2.49854 32.6711 0 35.7421 0C38.8132 0 41.3116 2.49843 41.3116 5.56953C41.3116 8.05904 39.6697 10.1719 37.412 10.883V14.4842H42.5159V19.588H46.1171C46.8282 17.3302 48.9411 15.6884 51.4305 15.6884C54.5016 15.6884 57 18.1868 57 21.2579C57 24.329 54.5016 26.8274 51.4305 26.8274ZM37.506 37.506V19.494H19.494V37.506H37.506Z" fill="#34B2FF"/>
</svg>
